# xmcd CD database file
#
# Track frame offsets:
#	150
#	39425
#	52676
#	78954
#	102723
#	147300
#	173322
#	198838
#	221633
#
# Disc length: 3166 seconds
#
# Revision: 0
# Processed by: cddbd v1.5.2PL0 Copyright (c) Steve Scherf et al.
# Submitted via: CDex 1.51
#
DISCID=6f0c5c09
DTITLE=Sur 5 - Personnel Changes
DYEAR=1997
DGENRE=Jazz
TTITLE0=Raymundo
TTITLE1=Womenor
TTITLE2=Last Dance
TTITLE3=Eight' Day
TTITLE4=Personnel Changes
TTITLE5=Paramaribop
TTITLE6=Kala Mama
TTITLE7=Bari Odi
TTITLE8=More Tears
EXTD=YEAR: 1997
EXTT0=
EXTT1=
EXTT2=
EXTT3=
EXTT4=
EXTT5=
EXTT6=
EXTT7=
EXTT8=
PLAYORDER=
